<svg width="106" height="27" viewBox="0 0 106 27" fill="none" xmlns="http://www.w3.org/2000/svg">
<path d="M9.74208 8.9043L17.0148 21.0764H2.46934L9.74208 8.9043Z" fill="white"/>
<path d="M21.8155 15.1309L15.8502 5.29407L27.7808 5.29407L21.8155 15.1309Z" fill="white"/>
<path d="M35.0803 13.71C35.0803 12.6213 35.3257 11.663 35.8163 10.835C36.3223 10.007 37.0047 9.363 37.8633 8.903C38.722 8.42767 39.6957 8.19 40.7843 8.19C41.873 8.19 42.839 8.42767 43.6823 8.903C44.541 9.363 45.2233 10.007 45.7293 10.835C46.2353 11.663 46.4883 12.6213 46.4883 13.71C46.4883 14.7833 46.2353 15.7417 45.7293 16.585C45.2233 17.413 44.541 18.0647 43.6823 18.54C42.839 19 41.873 19.23 40.7843 19.23C39.6957 19.23 38.722 19 37.8633 18.54C37.0047 18.0647 36.3223 17.413 35.8163 16.585C35.3257 15.7417 35.0803 14.7833 35.0803 13.71ZM37.6333 13.71C37.6333 14.3693 37.7713 14.952 38.0473 15.458C38.3233 15.9487 38.699 16.3397 39.1743 16.631C39.6497 16.907 40.1863 17.045 40.7843 17.045C41.367 17.045 41.896 16.907 42.3713 16.631C42.862 16.3397 43.2453 15.9487 43.5213 15.458C43.7973 14.952 43.9353 14.3693 43.9353 13.71C43.9353 13.0507 43.7973 12.468 43.5213 11.962C43.2453 11.456 42.862 11.065 42.3713 10.789C41.896 10.513 41.367 10.375 40.7843 10.375C40.1863 10.375 39.6497 10.513 39.1743 10.789C38.699 11.065 38.3233 11.456 38.0473 11.962C37.7713 12.468 37.6333 13.0507 37.6333 13.71ZM49.3283 15.527C49.6656 15.895 50.003 16.217 50.3403 16.493C50.693 16.7537 51.0456 16.953 51.3983 17.091C51.751 17.2137 52.1036 17.275 52.4563 17.275C52.901 17.275 53.246 17.1753 53.4913 16.976C53.752 16.7767 53.8823 16.5007 53.8823 16.148C53.8823 15.8413 53.7826 15.5807 53.5833 15.366C53.384 15.136 53.108 14.9443 52.7553 14.791C52.4026 14.6223 51.9886 14.4537 51.5133 14.285C51.038 14.101 50.5626 13.8863 50.0873 13.641C49.6273 13.3803 49.244 13.043 48.9373 12.629C48.646 12.215 48.5003 11.6937 48.5003 11.065C48.5003 10.421 48.6613 9.88433 48.9833 9.455C49.3206 9.02567 49.7653 8.71133 50.3173 8.512C50.8846 8.29733 51.4903 8.19 52.1343 8.19C52.717 8.19 53.2613 8.27433 53.7673 8.443C54.2886 8.61167 54.7563 8.834 55.1703 9.11C55.5843 9.386 55.937 9.70033 56.2283 10.053L54.8483 11.525C54.4956 11.111 54.074 10.7737 53.5833 10.513C53.0926 10.2523 52.5866 10.122 52.0653 10.122C51.7126 10.122 51.4213 10.1987 51.1913 10.352C50.9613 10.5053 50.8463 10.7277 50.8463 11.019C50.8463 11.2643 50.946 11.4867 51.1453 11.686C51.36 11.87 51.636 12.0387 51.9733 12.192C52.326 12.3453 52.717 12.5063 53.1463 12.675C53.729 12.905 54.2656 13.158 54.7563 13.434C55.247 13.71 55.638 14.0473 55.9293 14.446C56.236 14.8447 56.3893 15.366 56.3893 16.01C56.3893 17.0067 56.0443 17.8117 55.3543 18.425C54.6796 19.023 53.7596 19.322 52.5943 19.322C51.8736 19.322 51.2066 19.2147 50.5933 19C49.9953 18.77 49.4663 18.4787 49.0063 18.126C48.5616 17.758 48.186 17.3747 47.8793 16.976L49.3283 15.527ZM65.4013 12.56C65.4013 11.778 65.2403 11.1877 64.9183 10.789C64.5963 10.3903 64.098 10.191 63.4233 10.191C62.9633 10.191 62.557 10.2907 62.2043 10.49C61.8517 10.674 61.5757 10.95 61.3763 11.318C61.177 11.6707 61.0773 12.0847 61.0773 12.56V19H58.5933V8.42H61.0773V10.053C61.4147 9.42433 61.844 8.95667 62.3653 8.65C62.902 8.34333 63.5383 8.19 64.2743 8.19C65.4703 8.19 66.3827 8.558 67.0113 9.294C67.64 10.0147 67.9543 11.0113 67.9543 12.284V19H65.4013V12.56ZM70.3216 13.71C70.3216 12.6213 70.5669 11.663 71.0576 10.835C71.5636 10.007 72.2459 9.363 73.1046 8.903C73.9632 8.42767 74.9369 8.19 76.0256 8.19C77.1142 8.19 78.0802 8.42767 78.9236 8.903C79.7822 9.363 80.4646 10.007 80.9706 10.835C81.4766 11.663 81.7296 12.6213 81.7296 13.71C81.7296 14.7833 81.4766 15.7417 80.9706 16.585C80.4646 17.413 79.7822 18.0647 78.9236 18.54C78.0802 19 77.1142 19.23 76.0256 19.23C74.9369 19.23 73.9632 19 73.1046 18.54C72.2459 18.0647 71.5636 17.413 71.0576 16.585C70.5669 15.7417 70.3216 14.7833 70.3216 13.71ZM72.8746 13.71C72.8746 14.3693 73.0126 14.952 73.2886 15.458C73.5646 15.9487 73.9402 16.3397 74.4156 16.631C74.8909 16.907 75.4276 17.045 76.0256 17.045C76.6082 17.045 77.1372 16.907 77.6126 16.631C78.1032 16.3397 78.4866 15.9487 78.7626 15.458C79.0386 14.952 79.1766 14.3693 79.1766 13.71C79.1766 13.0507 79.0386 12.468 78.7626 11.962C78.4866 11.456 78.1032 11.065 77.6126 10.789C77.1372 10.513 76.6082 10.375 76.0256 10.375C75.4276 10.375 74.8909 10.513 74.4156 10.789C73.9402 11.065 73.5646 11.456 73.2886 11.962C73.0126 12.468 72.8746 13.0507 72.8746 13.71ZM82.1396 8.42H84.8536L87.6136 15.251L90.3736 8.42H93.1106L87.6136 19.966L82.1396 8.42ZM93.5237 13.71C93.5237 12.6213 93.769 11.663 94.2597 10.835C94.7657 10.007 95.448 9.363 96.3067 8.903C97.1654 8.42767 98.139 8.19 99.2277 8.19C100.316 8.19 101.282 8.42767 102.126 8.903C102.984 9.363 103.667 10.007 104.173 10.835C104.679 11.663 104.932 12.6213 104.932 13.71C104.932 14.7833 104.679 15.7417 104.173 16.585C103.667 17.413 102.984 18.0647 102.126 18.54C101.282 19 100.316 19.23 99.2277 19.23C98.139 19.23 97.1654 19 96.3067 18.54C95.448 18.0647 94.7657 17.413 94.2597 16.585C93.769 15.7417 93.5237 14.7833 93.5237 13.71ZM96.0767 13.71C96.0767 14.3693 96.2147 14.952 96.4907 15.458C96.7667 15.9487 97.1424 16.3397 97.6177 16.631C98.093 16.907 98.6297 17.045 99.2277 17.045C99.8104 17.045 100.339 16.907 100.815 16.631C101.305 16.3397 101.689 15.9487 101.965 15.458C102.241 14.952 102.379 14.3693 102.379 13.71C102.379 13.0507 102.241 12.468 101.965 11.962C101.689 11.456 101.305 11.065 100.815 10.789C100.339 10.513 99.8104 10.375 99.2277 10.375C98.6297 10.375 98.093 10.513 97.6177 10.789C97.1424 11.065 96.7667 11.456 96.4907 11.962C96.2147 12.468 96.0767 13.0507 96.0767 13.71Z" fill="white"/>
</svg>
